<?xml version="1.0" encoding="UTF-8" standalone="no"?>
<svg
   xmlns:dc="http://purl.org/dc/elements/1.1/"
   xmlns:cc="http://creativecommons.org/ns#"
   xmlns:rdf="http://www.w3.org/1999/02/22-rdf-syntax-ns#"
   xmlns:svg="http://www.w3.org/2000/svg"
   xmlns="http://www.w3.org/2000/svg"
   xmlns:sodipodi="http://sodipodi.sourceforge.net/DTD/sodipodi-0.dtd"
   xmlns:inkscape="http://www.inkscape.org/namespaces/inkscape"
   id="Layer_1"
   data-name="Layer 1"
   viewBox="0 0 613 145"
   version="1.1"
   sodipodi:docname="askme.svg"
   inkscape:export-filename="/home/bmader/Downloads/askme.png"
   inkscape:export-xdpi="96"
   inkscape:export-ydpi="96"
   inkscape:version="0.92.3 (2405546, 2018-03-11)">
  <metadata
     id="metadata830">
    <rdf:RDF>
      <cc:Work
         rdf:about="">
        <dc:format>image/svg+xml</dc:format>
        <dc:type
           rdf:resource="http://purl.org/dc/dcmitype/StillImage" />
        <dc:title>RedHat-Logo-A-Reverse</dc:title>
      </cc:Work>
    </rdf:RDF>
  </metadata>
  <sodipodi:namedview
     pagecolor="#ffffff"
     bordercolor="#666666"
     borderopacity="1"
     objecttolerance="10"
     gridtolerance="10"
     guidetolerance="10"
     inkscape:pageopacity="0"
     inkscape:pageshadow="2"
     inkscape:window-width="2560"
     inkscape:window-height="1403"
     id="namedview828"
     showgrid="false"
     inkscape:zoom="3.2006525"
     inkscape:cx="374.49083"
     inkscape:cy="-240.45874"
     inkscape:window-x="2560"
     inkscape:window-y="0"
     inkscape:window-maximized="1"
     inkscape:current-layer="Layer_1" />
  <defs
     id="defs817">
    <style
       id="style815">.cls-1{fill:#e00;}.cls-2{fill:#fff;}</style>
  </defs>
  <title
     id="title819">RedHat-Logo-A-Reverse</title>
  <path
     style="fill:#ffffff;stroke-width:1.88976378;stroke:#000000;stroke-opacity:1;stroke-miterlimit:4;stroke-dasharray:none"
     inkscape:connector-curvature="0"
     class="cls-2"
     d="m 361.22626,501.42053 c 0,2.38071 1.43163,3.53803 4.0426,3.53803 a 10.433871,10.433871 0 0 0 2.38071,-0.33639 v -2.76114 a 4.9736588,4.9736588 0 0 1 -1.53775,0.23227 c -1.07522,0 -1.47368,-0.33639 -1.47368,-1.34754 v -4.23081 h 3.11555 v -2.84324 h -3.11555 v -3.6041 l -3.40387,0.73684 v 2.86726 h -2.26057 v 2.84324 h 2.25256 z m -10.61207,0.0641 c 0,-0.73683 0.73884,-1.09524 1.85411,-1.09524 a 8.6338232,8.6338232 0 0 1 2.0223,0.25228 v 1.43163 a 4.3069002,4.3069002 0 0 1 -2.12842,0.5266 c -1.09325,0 -1.74799,-0.42048 -1.74799,-1.11527 m 1.04118,3.516 c 1.20137,0 2.17047,-0.25228 3.0755,-0.86298 v 0.67477 h 3.36783 v -7.14012 c 0,-2.71509 -1.83008,-4.20479 -4.88355,-4.20479 -1.70595,0 -3.39186,0.40046 -5.20593,1.22139 l 1.22139,2.50685 c 1.30549,-0.54862 2.40274,-0.885 3.36984,-0.885 1.40159,0 2.12642,0.54662 2.12642,1.66389 v 0.54662 a 9.9172834,9.9172834 0 0 0 -2.52688,-0.31636 c -2.86526,0 -4.59122,1.20137 -4.59122,3.34981 0,1.95823 1.55777,3.45193 4.0426,3.45193 m -18.50906,-0.18821 h 3.62212 v -5.77658 h 6.0649 v 5.77057 h 3.63213 v -14.74077 h -3.61811 v 5.66444 h -6.06491 v -5.66444 h -3.62212 z m -13.78769,-5.58636 c 0,-1.60182 1.26344,-2.82321 2.92733,-2.82321 a 3.4479229,3.4479229 0 0 1 2.35468,0.86498 v 3.89443 a 3.275727,3.275727 0 0 1 -2.35468,0.89302 c -1.64187,0 -2.92733,-1.22139 -2.92733,-2.82121 m 5.32806,5.58035 h 3.36984 v -15.48562 l -3.40388,0.73684 v 4.19077 a 5.666447,5.666447 0 0 0 -2.84323,-0.73684 c -3.24169,0 -5.79059,2.50485 -5.79059,5.70649 a 5.6564356,5.6564356 0 0 0 5.68647,5.72652 5.0297226,5.0297226 0 0 0 2.9894,-0.9671 z m -15.46359,-8.56575 c 1.07322,0 1.97825,0.69479 2.33666,1.76801 h -4.64529 c 0.33639,-1.10725 1.17934,-1.76801 2.30863,-1.76801 m -5.74053,3.00342 c 0,3.24369 2.65302,5.77057 6.0629,5.77057 1.87413,0 3.24369,-0.50658 4.65529,-1.68592 l -2.25456,-2.00228 c -0.5266,0.54862 -1.30549,0.84296 -2.23054,0.84296 a 2.8812782,2.8812782 0 0 1 -2.73912,-1.76801 h 7.93904 v -0.84697 c 0,-3.53802 -2.37871,-6.08492 -5.6224,-6.08492 a 5.7205085,5.7205085 0 0 0 -5.80661,5.76856 m -5.87668,-6.08492 c 1.20136,0 1.87413,0.75686 1.87413,1.66389 0,0.90704 -0.67277,1.6639 -1.87413,1.6639 h -3.58208 v -3.32779 z m -7.2082,11.64525 h 3.62212 v -5.37011 h 2.75713 l 2.78117,5.37011 h 4.05461 l -3.24369,-5.89671 a 4.4590733,4.4590733 0 0 0 2.77916,-4.14872 c 0,-2.65302 -2.08437,-4.69534 -5.20592,-4.69534 h -7.54458 z"
     id="path825"
     inkscape:export-xdpi="96"
     inkscape:export-ydpi="96" />
  <text
     id="text884"
     y="300.79227"
     x="166.76088"
     style="font-style:normal;font-weight:normal;font-size:33.27604675px;line-height:1.25;font-family:sans-serif;letter-spacing:0px;word-spacing:0px;fill:#ffffff;fill-opacity:1;stroke:#000000;stroke-width:1.88976378;stroke-opacity:1;stroke-miterlimit:4;stroke-dasharray:none"
     xml:space="preserve"><tspan
       style="font-style:normal;font-variant:normal;font-weight:900;font-stretch:normal;font-family:'Red Hat Display';-inkscape-font-specification:'Red Hat Display Heavy';stroke-width:1.88976378;stroke:#000000;stroke-opacity:1;stroke-miterlimit:4;stroke-dasharray:none"
       y="300.79227"
       x="166.76088"
       id="tspan882"
       sodipodi:role="line">Ask me about my</tspan></text>
  <path
     id="path880"
     d="m 270.66923,499.55641 c 2.50485,0 6.12897,-0.51659 6.12897,-3.49598 a 2.8031893,2.8031893 0 0 0 -0.0621,-0.68478 l -1.4917,-6.47937 c -0.34439,-1.42562 -0.64673,-2.07236 -3.14958,-3.32378 -1.94221,-0.99313 -6.17302,-2.633 -7.42445,-2.633 -1.16532,0 -1.50371,1.50171 -2.89329,1.50171 -1.33752,0 -2.33065,-1.12127 -3.58207,-1.12127 -1.20137,0 -1.98426,0.81893 -2.58895,2.50284 0,0 -1.68392,4.74941 -1.90016,5.43819 a 1.2874648,1.2874648 0 0 0 -0.044,0.38844 c 0,1.8461 7.26827,7.89899 17.00735,7.89899 m 6.51341,-2.27859 c 0.34639,1.63986 0.34639,1.81206 0.34639,2.02831 0,2.80319 -3.15158,4.35896 -7.2943,4.35896 -9.36265,0.006 -17.56398,-5.48024 -17.56398,-9.10637 a 3.6942031,3.6942031 0 0 1 0.30235,-1.46767 c -3.36784,0.1682 -7.7268,0.76888 -7.7268,4.61726 0,6.30317 14.935,14.07201 26.76045,14.07201 9.06632,0 11.35292,-4.10067 11.35292,-7.33835 0,-2.5469 -2.20251,-5.43819 -6.17303,-7.16415"
     class="cls-1"
     inkscape:connector-curvature="0"
     style="fill:#ee0000;stroke-width:1.88976378;stroke:#000000;stroke-opacity:1;stroke-miterlimit:4;stroke-dasharray:none" />
  <text
     id="text867"
     y="450.78558"
     x="144.11424"
     style="font-style:normal;font-weight:normal;font-size:70.63209534px;line-height:1.25;font-family:sans-serif;letter-spacing:0px;word-spacing:0px;fill:#346dc0;fill-opacity:1;stroke:#000000;stroke-width:1.88976378;stroke-opacity:1;stroke-miterlimit:4;stroke-dasharray:none"
     xml:space="preserve"><tspan
       style="font-style:normal;font-variant:normal;font-weight:900;font-stretch:normal;font-family:'Red Hat Display';-inkscape-font-specification:'Red Hat Display Heavy';fill:#346dc0;fill-opacity:1;stroke-width:1.88976378;stroke:#000000;stroke-opacity:1;stroke-miterlimit:4;stroke-dasharray:none"
       y="450.78558"
       x="144.11424"
       id="tspan865"
       sodipodi:role="line">Blueprint</tspan></text>
  <text
     xml:space="preserve"
     style="font-style:normal;font-weight:normal;font-size:70.63209534px;line-height:1.25;font-family:sans-serif;letter-spacing:0px;word-spacing:0px;fill:#346dc0;fill-opacity:1;stroke:#000000;stroke-width:1.88976378;stroke-opacity:1;stroke-miterlimit:4;stroke-dasharray:none"
     x="155.46173"
     y="374.03854"
     id="text876"><tspan
       sodipodi:role="line"
       id="tspan874"
       x="155.46173"
       y="374.03854"
       style="font-style:normal;font-variant:normal;font-weight:900;font-stretch:normal;font-family:'Red Hat Display';-inkscape-font-specification:'Red Hat Display Heavy';fill:#346dc0;fill-opacity:1;stroke-width:1.88976378;stroke:#000000;stroke-opacity:1;stroke-miterlimit:4;stroke-dasharray:none">Upgrade</tspan></text>
  <rect
     style="fill:none;fill-opacity:1;stroke:none;stroke-width:0.18897638;stroke-miterlimit:4;stroke-dasharray:none;stroke-opacity:1"
     id="rect832"
     width="320"
     height="240"
     x="146.5"
     y="274.97351" />
  <path
     style="fill:#ee0000;stroke-width:0.99999994;stroke:none;stroke-opacity:1"
     inkscape:connector-curvature="0"
     class="cls-1"
     d="m 270.66923,499.55641 c 2.50485,0 6.12897,-0.51659 6.12897,-3.49598 a 2.8031893,2.8031893 0 0 0 -0.0621,-0.68478 l -1.4917,-6.47937 c -0.34439,-1.42562 -0.64673,-2.07236 -3.14958,-3.32378 -1.94221,-0.99313 -6.17302,-2.633 -7.42445,-2.633 -1.16532,0 -1.50371,1.50171 -2.89329,1.50171 -1.33752,0 -2.33065,-1.12127 -3.58207,-1.12127 -1.20137,0 -1.98426,0.81893 -2.58895,2.50284 0,0 -1.68392,4.74941 -1.90016,5.43819 a 1.2874648,1.2874648 0 0 0 -0.044,0.38844 c 0,1.8461 7.26827,7.89899 17.00735,7.89899 m 6.51341,-2.27859 c 0.34639,1.63986 0.34639,1.81206 0.34639,2.02831 0,2.80319 -3.15158,4.35896 -7.2943,4.35896 -9.36265,0.006 -17.56398,-5.48024 -17.56398,-9.10637 a 3.6942031,3.6942031 0 0 1 0.30235,-1.46767 c -3.36784,0.1682 -7.7268,0.76888 -7.7268,4.61726 0,6.30317 14.935,14.07201 26.76045,14.07201 9.06632,0 11.35292,-4.10067 11.35292,-7.33835 0,-2.5469 -2.20251,-5.43819 -6.17303,-7.16415"
     id="path821" />
  <path
     style="stroke-width:0.99999994"
     inkscape:connector-curvature="0"
     d="m 277.18264,497.26981 c 0.34639,1.63986 0.34639,1.81206 0.34639,2.02831 0,2.80319 -3.15158,4.35896 -7.2943,4.35896 -9.36265,0.006 -17.56398,-5.48024 -17.56398,-9.10637 a 3.6942031,3.6942031 0 0 1 0.30235,-1.46767 l 0.73283,-1.81406 a 1.2874648,1.2874648 0 0 0 -0.044,0.38043 c 0,1.8461 7.26827,7.89899 17.00735,7.89899 2.50485,0 6.12897,-0.51659 6.12897,-3.49598 a 2.8031893,2.8031893 0 0 0 -0.0621,-0.68478 z"
     id="path823" />
  <text
     xml:space="preserve"
     style="font-style:normal;font-weight:normal;font-size:33.27604675px;line-height:1.25;font-family:sans-serif;letter-spacing:0px;word-spacing:0px;fill:#ffffff;fill-opacity:1;stroke:none;stroke-width:0.99999994"
     x="166.76088"
     y="300.79227"
     id="text841"><tspan
       sodipodi:role="line"
       id="tspan839"
       x="166.76088"
       y="300.79227"
       style="font-style:normal;font-variant:normal;font-weight:900;font-stretch:normal;font-family:'Red Hat Display';-inkscape-font-specification:'Red Hat Display Heavy';stroke-width:0.88844597">Ask me about my</tspan></text>
  <text
     id="text845"
     y="374.03854"
     x="155.46173"
     style="font-style:normal;font-weight:normal;font-size:70.63209534px;line-height:1.25;font-family:sans-serif;letter-spacing:0px;word-spacing:0px;fill:#346dc0;fill-opacity:1;stroke:none;stroke-width:1.0015748;stroke-opacity:1;stroke-miterlimit:4;stroke-dasharray:none;"
     xml:space="preserve"><tspan
       style="font-style:normal;font-variant:normal;font-weight:900;font-stretch:normal;font-family:'Red Hat Display';-inkscape-font-specification:'Red Hat Display Heavy';fill:#346dc0;fill-opacity:1;stroke-width:1.0015748;stroke:none;stroke-opacity:1;stroke-miterlimit:4;stroke-dasharray:none;"
       y="374.03854"
       x="155.46173"
       id="tspan843"
       sodipodi:role="line">Upgrade</tspan></text>
  <text
     xml:space="preserve"
     style="font-style:normal;font-weight:normal;font-size:70.63209534px;line-height:1.25;font-family:sans-serif;letter-spacing:0px;word-spacing:0px;fill:#346dc0;fill-opacity:1;stroke:none;stroke-width:0.99999994"
     x="144.11424"
     y="450.78558"
     id="text849"><tspan
       sodipodi:role="line"
       id="tspan847"
       x="144.11424"
       y="450.78558"
       style="font-style:normal;font-variant:normal;font-weight:900;font-stretch:normal;font-family:'Red Hat Display';-inkscape-font-specification:'Red Hat Display Heavy';fill:#346dc0;fill-opacity:1;stroke-width:0.88844591">Blueprint</tspan></text>
  <path
     id="path878"
     d="m 361.22626,501.42053 c 0,2.38071 1.43163,3.53803 4.0426,3.53803 a 10.433871,10.433871 0 0 0 2.38071,-0.33639 v -2.76114 a 4.9736588,4.9736588 0 0 1 -1.53775,0.23227 c -1.07522,0 -1.47368,-0.33639 -1.47368,-1.34754 v -4.23081 h 3.11555 v -2.84324 h -3.11555 v -3.6041 l -3.40387,0.73684 v 2.86726 h -2.26057 v 2.84324 h 2.25256 z m -10.61207,0.0641 c 0,-0.73683 0.73884,-1.09524 1.85411,-1.09524 a 8.6338232,8.6338232 0 0 1 2.0223,0.25228 v 1.43163 a 4.3069002,4.3069002 0 0 1 -2.12842,0.5266 c -1.09325,0 -1.74799,-0.42048 -1.74799,-1.11527 m 1.04118,3.516 c 1.20137,0 2.17047,-0.25228 3.0755,-0.86298 v 0.67477 h 3.36783 v -7.14012 c 0,-2.71509 -1.83008,-4.20479 -4.88355,-4.20479 -1.70595,0 -3.39186,0.40046 -5.20593,1.22139 l 1.22139,2.50685 c 1.30549,-0.54862 2.40274,-0.885 3.36984,-0.885 1.40159,0 2.12642,0.54662 2.12642,1.66389 v 0.54662 a 9.9172834,9.9172834 0 0 0 -2.52688,-0.31636 c -2.86526,0 -4.59122,1.20137 -4.59122,3.34981 0,1.95823 1.55777,3.45193 4.0426,3.45193 m -18.50906,-0.18821 h 3.62212 v -5.77658 h 6.0649 v 5.77057 h 3.63213 v -14.74077 h -3.61811 v 5.66444 h -6.06491 v -5.66444 h -3.62212 z m -13.78769,-5.58636 c 0,-1.60182 1.26344,-2.82321 2.92733,-2.82321 a 3.4479229,3.4479229 0 0 1 2.35468,0.86498 v 3.89443 a 3.275727,3.275727 0 0 1 -2.35468,0.89302 c -1.64187,0 -2.92733,-1.22139 -2.92733,-2.82121 m 5.32806,5.58035 h 3.36984 v -15.48562 l -3.40388,0.73684 v 4.19077 a 5.666447,5.666447 0 0 0 -2.84323,-0.73684 c -3.24169,0 -5.79059,2.50485 -5.79059,5.70649 a 5.6564356,5.6564356 0 0 0 5.68647,5.72652 5.0297226,5.0297226 0 0 0 2.9894,-0.9671 z m -15.46359,-8.56575 c 1.07322,0 1.97825,0.69479 2.33666,1.76801 h -4.64529 c 0.33639,-1.10725 1.17934,-1.76801 2.30863,-1.76801 m -5.74053,3.00342 c 0,3.24369 2.65302,5.77057 6.0629,5.77057 1.87413,0 3.24369,-0.50658 4.65529,-1.68592 l -2.25456,-2.00228 c -0.5266,0.54862 -1.30549,0.84296 -2.23054,0.84296 a 2.8812782,2.8812782 0 0 1 -2.73912,-1.76801 h 7.93904 v -0.84697 c 0,-3.53802 -2.37871,-6.08492 -5.6224,-6.08492 a 5.7205085,5.7205085 0 0 0 -5.80661,5.76856 m -5.87668,-6.08492 c 1.20136,0 1.87413,0.75686 1.87413,1.66389 0,0.90704 -0.67277,1.6639 -1.87413,1.6639 h -3.58208 v -3.32779 z m -7.2082,11.64525 h 3.62212 v -5.37011 h 2.75713 l 2.78117,5.37011 h 4.05461 l -3.24369,-5.89671 a 4.4590733,4.4590733 0 0 0 2.77916,-4.14872 c 0,-2.65302 -2.08437,-4.69534 -5.20592,-4.69534 h -7.54458 z"
     class="cls-2"
     inkscape:connector-curvature="0"
     style="fill:#ffffff;stroke-width:1.0015748;stroke:none;stroke-opacity:1;stroke-miterlimit:4;stroke-dasharray:none" />
</svg>
