<?xml version="1.0" encoding="UTF-8" standalone="no"?>
<svg
   xmlns:dc="http://purl.org/dc/elements/1.1/"
   xmlns:cc="http://creativecommons.org/ns#"
   xmlns:rdf="http://www.w3.org/1999/02/22-rdf-syntax-ns#"
   xmlns:svg="http://www.w3.org/2000/svg"
   xmlns="http://www.w3.org/2000/svg"
   xmlns:sodipodi="http://sodipodi.sourceforge.net/DTD/sodipodi-0.dtd"
   xmlns:inkscape="http://www.inkscape.org/namespaces/inkscape"
   id="Layer_1"
   data-name="Layer 1"
   viewBox="0 0 388 250"
   version="1.1"
   sodipodi:docname="rhblogo.svg"
   inkscape:version="0.92.3 (2405546, 2018-03-11)"
   inkscape:export-filename="/home/bmader/Downloads/rhblogo.png"
   inkscape:export-xdpi="96"
   inkscape:export-ydpi="96">
  <metadata
     id="metadata928">
    <rdf:RDF>
      <cc:Work
         rdf:about="">
        <dc:format>image/svg+xml</dc:format>
        <dc:type
           rdf:resource="http://purl.org/dc/dcmitype/StillImage" />
        <dc:title>RedHat-Logo-B-Reverse</dc:title>
      </cc:Work>
    </rdf:RDF>
  </metadata>
  <sodipodi:namedview
     pagecolor="#ffffff"
     bordercolor="#666666"
     borderopacity="1"
     objecttolerance="10"
     gridtolerance="10"
     guidetolerance="10"
     inkscape:pageopacity="0"
     inkscape:pageshadow="2"
     inkscape:window-width="2560"
     inkscape:window-height="1403"
     id="namedview926"
     showgrid="false"
     inkscape:zoom="3.4223968"
     inkscape:cx="263.12946"
     inkscape:cy="103.15691"
     inkscape:window-x="2560"
     inkscape:window-y="0"
     inkscape:window-maximized="1"
     inkscape:current-layer="Layer_1" />
  <defs
     id="defs915">
    <style
       id="style913">.cls-1{fill:#e00;}.cls-2{fill:#fff;}</style>
  </defs>
  <title
     id="title917">RedHat-Logo-B-Reverse</title>
  <path
     style="stroke-width:1.88976378;stroke:#000000;stroke-opacity:1;stroke-miterlimit:4;stroke-dasharray:none"
     inkscape:connector-curvature="0"
     d="m 244.93063,73.787764 a 11.484403,11.484403 0 0 1 0.2543,2.813679 c 0,12.20628 -14.83949,14.3473 -25.10162,14.355504 -39.91651,0 -69.72674,-24.740686 -69.72674,-32.303986 a 5.0449342,5.0449342 0 0 1 0.18047,-1.640629 l -3.00235,7.440253 a 15.143006,15.143006 0 0 0 -1.23047,6.012905 c 0,14.855896 33.63289,37.2915 72.02361,37.25869 16.98051,0 29.89226,-6.39846 29.87586,-17.899267 0,-0.877737 0,-1.591411 -1.41915,-8.309786 z"
     id="path965" />
  <path
     id="path963"
     d="m 244.93063,73.787764 a 11.484403,11.484403 0 0 1 0.2543,2.813679 c 0,12.20628 -14.83949,14.3473 -25.10162,14.355504 -39.91651,0 -69.72674,-24.740686 -69.72674,-32.303986 a 5.0449342,5.0449342 0 0 1 0.18047,-1.640629 l -3.00235,7.440253 a 15.143006,15.143006 0 0 0 -1.23047,6.012905 c 0,14.855896 33.63289,37.2915 72.02361,37.25869 16.98051,0 29.89226,-6.39846 29.87586,-17.899267 0,-0.877737 0,-1.591411 -1.41915,-8.309786 z"
     inkscape:connector-curvature="0"
     style="stroke-width:0;stroke:#000000;stroke-opacity:1;stroke-miterlimit:4;stroke-dasharray:none" />
  <path
     id="path961"
     d="m 220.08331,90.948743 c 10.26213,0 25.11803,-2.149224 25.10162,-14.355503 a 11.484403,11.484403 0 0 0 -0.2543,-2.805476 l -6.13595,-26.545378 c -1.41914,-5.840639 -2.66602,-8.490255 -12.92816,-13.609017 -7.96525,-4.060557 -25.3067,-10.77073 -30.43367,-10.762527 -4.77423,0 -6.18517,6.193375 -11.84534,6.201578 -5.4797,0 -9.55666,-4.593761 -14.68363,-4.585558 -4.92188,0 -8.13752,3.371492 -10.60666,10.270338 0,0 -6.88244,19.45786 -7.76018,22.287945 a 5.0449342,5.0449342 0 0 0 -0.18047,1.640629 c 0,7.5633 29.81023,32.336798 69.72674,32.303985 m 26.70123,-9.466429 c 1.41915,6.718376 1.41915,7.432049 1.41915,8.309786 0,11.484404 -12.89535,17.882854 -29.87586,17.899264 -38.38251,0 -72.00721,-22.402791 -72.02361,-37.258687 a 15.143006,15.143006 0 0 1 1.23047,-6.012905 c -13.79769,0.713674 -31.65594,3.20743 -31.64773,18.949265 0,25.823497 61.26108,57.610687 109.72527,57.569677 37.14384,0 46.50362,-16.84926 46.49542,-30.11375 0,-10.4426 -9.02346,-22.279742 -25.32311,-29.34265"
     class="cls-1"
     inkscape:connector-curvature="0"
     style="fill:#ee0000;stroke-width:1.88976383;stroke:#000000;stroke-opacity:1;stroke-miterlimit:4;stroke-dasharray:none" />
  <path
     id="path959"
     d="m 325.707,212.3799 c 0,9.74534 5.86525,14.48675 16.56215,14.48675 a 42.656355,42.656355 0 0 0 9.75354,-1.37812 v -11.30394 a 20.138721,20.138721 0 0 1 -6.30001,0.95157 c -4.40509,0 -6.03752,-1.37813 -6.03752,-5.52072 v -17.34965 h 12.76409 v -11.64847 h -12.76409 v -14.76566 l -13.94535,3.01876 v 11.7305 h -9.26135 v 11.66487 h 9.22854 z m -43.42745,0.2543 c 0,-3.01876 3.01876,-4.48712 7.58791,-4.48712 a 35.371962,35.371962 0 0 1 8.28518,1.03359 v 5.87346 a 17.7352,17.7352 0 0 1 -8.71995,2.15742 c -4.47891,0 -7.15314,-1.73086 -7.15314,-4.57735 m 4.25743,14.40472 c 4.92189,0 8.89221,-1.0336 12.60003,-3.53555 v 2.76446 h 13.8059 v -29.24422 c 0,-11.13167 -7.50588,-17.2266 -20.01568,-17.2266 -6.98908,0 -13.89612,1.64063 -21.32817,5.00392 l 5.00392,10.27033 c 5.34845,-2.24766 9.84377,-3.62579 13.80589,-3.62579 5.7422,0 8.71174,2.23946 8.71174,6.81682 v 2.20664 a 40.589162,40.589162 0 0 0 -10.35237,-1.28789 c -11.7305,0 -18.80981,4.92189 -18.80981,13.71566 0,8.02267 6.38204,14.14222 16.56215,14.14222 m -75.82988,-0.77109 h 14.83949 v -23.64147 h 24.84733 v 23.64147 h 14.83949 v -60.39156 h -14.82308 v 23.2067 H 225.5466 v -23.2067 h -14.83949 z m -56.54427,-22.86217 c 0,-6.56252 5.17618,-11.55823 11.99299,-11.55823 a 14.125816,14.125816 0 0 1 9.66331,3.53555 v 15.95512 a 13.420345,13.420345 0 0 1 -9.66331,3.62579 c -6.72658,0 -11.99299,-5.00392 -11.99299,-11.55823 m 21.82856,22.86217 h 13.8059 v -63.41032 l -13.94535,3.01876 v 17.16918 a 23.190291,23.190291 0 0 0 -11.64847,-3.01875 c -13.28089,0 -23.72349,10.26213 -23.72349,23.37896 a 23.182088,23.182088 0 0 0 23.29693,23.46099 20.6063,20.6063 0 0 0 12.2473,-3.96211 z M 112.65492,191.2404 c 4.39688,0 8.1047,2.84649 9.57307,7.24337 h -19.04771 c 1.37813,-4.56915 4.83166,-7.24337 9.49104,-7.24337 m -23.551226,12.24729 c 0,13.2891 10.869167,23.64147 24.847326,23.64147 7.67814,0 13.28089,-2.0672 19.06411,-6.89885 l -9.23674,-8.20314 c -2.14923,2.23945 -5.34845,3.44532 -9.13831,3.44532 a 11.804326,11.804326 0 0 1 -11.2219,-7.24338 h 32.52547 v -3.45353 c 0,-14.49495 -9.74533,-24.92935 -23.03443,-24.92935 A 23.436386,23.436386 0 0 0 89.1365,203.47949 M 65.052066,178.55833 c 4.921887,0 7.678144,3.109 7.678144,6.81682 0,3.70782 -2.76446,6.81681 -7.678144,6.81681 H 50.384843 v -13.63363 z m -29.531322,47.7095 h 14.864099 v -22.00084 h 11.29573 l 11.394169,22.00084 h 16.56215 L 76.347797,202.10956 a 18.268404,18.268404 0 0 0 11.394168,-16.99691 c 0,-10.86917 -8.547677,-19.23638 -21.328177,-19.23638 H 35.545353 Z"
     class="cls-2"
     inkscape:connector-curvature="0"
     style="fill:#ffffff;stroke-width:1.88976378;stroke-miterlimit:4;stroke-dasharray:none;stroke:#000000;stroke-opacity:1" />
  <rect
     style="fill:none;fill-opacity:1;stroke:none;stroke-width:1.88976383;stroke-miterlimit:4;stroke-dasharray:none;stroke-opacity:1"
     id="rect949"
     width="320"
     height="240"
     x="33.985001"
     y="4.9999952" />
  <path
     style="fill:#ee0000;stroke-width:1.21904469"
     inkscape:connector-curvature="0"
     class="cls-1"
     d="m 220.08331,90.948743 c 10.26213,0 25.11803,-2.149224 25.10162,-14.355503 a 11.484403,11.484403 0 0 0 -0.2543,-2.805476 l -6.13595,-26.545378 c -1.41914,-5.840639 -2.66602,-8.490255 -12.92816,-13.609017 -7.96525,-4.060557 -25.3067,-10.77073 -30.43367,-10.762527 -4.77423,0 -6.18517,6.193375 -11.84534,6.201578 -5.4797,0 -9.55666,-4.593761 -14.68363,-4.585558 -4.92188,0 -8.13752,3.371492 -10.60666,10.270338 0,0 -6.88244,19.45786 -7.76018,22.287945 a 5.0449342,5.0449342 0 0 0 -0.18047,1.640629 c 0,7.5633 29.81023,32.336798 69.72674,32.303985 m 26.70123,-9.466429 c 1.41915,6.718376 1.41915,7.432049 1.41915,8.309786 0,11.484404 -12.89535,17.882854 -29.87586,17.899264 -38.38251,0 -72.00721,-22.402791 -72.02361,-37.258687 a 15.143006,15.143006 0 0 1 1.23047,-6.012905 c -13.79769,0.713674 -31.65594,3.20743 -31.64773,18.949265 0,25.823497 61.26108,57.610687 109.72527,57.569677 37.14384,0 46.50362,-16.84926 46.49542,-30.11375 0,-10.4426 -9.02346,-22.279742 -25.32311,-29.34265"
     id="path921" />
  <path
     style="fill:#ffffff;stroke-width:1.21904469"
     inkscape:connector-curvature="0"
     class="cls-2"
     d="m 325.707,212.3799 c 0,9.74534 5.86525,14.48675 16.56215,14.48675 a 42.656355,42.656355 0 0 0 9.75354,-1.37812 v -11.30394 a 20.138721,20.138721 0 0 1 -6.30001,0.95157 c -4.40509,0 -6.03752,-1.37813 -6.03752,-5.52072 v -17.34965 h 12.76409 v -11.64847 h -12.76409 v -14.76566 l -13.94535,3.01876 v 11.7305 h -9.26135 v 11.66487 h 9.22854 z m -43.42745,0.2543 c 0,-3.01876 3.01876,-4.48712 7.58791,-4.48712 a 35.371962,35.371962 0 0 1 8.28518,1.03359 v 5.87346 a 17.7352,17.7352 0 0 1 -8.71995,2.15742 c -4.47891,0 -7.15314,-1.73086 -7.15314,-4.57735 m 4.25743,14.40472 c 4.92189,0 8.89221,-1.0336 12.60003,-3.53555 v 2.76446 h 13.8059 v -29.24422 c 0,-11.13167 -7.50588,-17.2266 -20.01568,-17.2266 -6.98908,0 -13.89612,1.64063 -21.32817,5.00392 l 5.00392,10.27033 c 5.34845,-2.24766 9.84377,-3.62579 13.80589,-3.62579 5.7422,0 8.71174,2.23946 8.71174,6.81682 v 2.20664 a 40.589162,40.589162 0 0 0 -10.35237,-1.28789 c -11.7305,0 -18.80981,4.92189 -18.80981,13.71566 0,8.02267 6.38204,14.14222 16.56215,14.14222 m -75.82988,-0.77109 h 14.83949 v -23.64147 h 24.84733 v 23.64147 h 14.83949 v -60.39156 h -14.82308 v 23.2067 H 225.5466 v -23.2067 h -14.83949 z m -56.54427,-22.86217 c 0,-6.56252 5.17618,-11.55823 11.99299,-11.55823 a 14.125816,14.125816 0 0 1 9.66331,3.53555 v 15.95512 a 13.420345,13.420345 0 0 1 -9.66331,3.62579 c -6.72658,0 -11.99299,-5.00392 -11.99299,-11.55823 m 21.82856,22.86217 h 13.8059 v -63.41032 l -13.94535,3.01876 v 17.16918 a 23.190291,23.190291 0 0 0 -11.64847,-3.01875 c -13.28089,0 -23.72349,10.26213 -23.72349,23.37896 a 23.182088,23.182088 0 0 0 23.29693,23.46099 20.6063,20.6063 0 0 0 12.2473,-3.96211 z M 112.65492,191.2404 c 4.39688,0 8.1047,2.84649 9.57307,7.24337 h -19.04771 c 1.37813,-4.56915 4.83166,-7.24337 9.49104,-7.24337 m -23.551226,12.24729 c 0,13.2891 10.869167,23.64147 24.847326,23.64147 7.67814,0 13.28089,-2.0672 19.06411,-6.89885 l -9.23674,-8.20314 c -2.14923,2.23945 -5.34845,3.44532 -9.13831,3.44532 a 11.804326,11.804326 0 0 1 -11.2219,-7.24338 h 32.52547 v -3.45353 c 0,-14.49495 -9.74533,-24.92935 -23.03443,-24.92935 A 23.436386,23.436386 0 0 0 89.1365,203.47949 M 65.052066,178.55833 c 4.921887,0 7.678144,3.109 7.678144,6.81682 0,3.70782 -2.76446,6.81681 -7.678144,6.81681 H 50.384843 v -13.63363 z m -29.531322,47.7095 h 14.864099 v -22.00084 h 11.29573 l 11.394169,22.00084 h 16.56215 L 76.347797,202.10956 a 18.268404,18.268404 0 0 0 11.394168,-16.99691 c 0,-10.86917 -8.547677,-19.23638 -21.328177,-19.23638 H 35.545353 Z"
     id="path923" />
</svg>
